<svg width="90" height="90" viewBox="-20 0 110 90" fill="none" xmlns="http://www.w3.org/2000/svg">
<rect width="90" height="90" fill="#1E1E1E"/>
<g id="Frame 222">
<rect width="2890" height="910" transform="translate(-1198 -273)" fill="#10296E"/>
<g id="Frame 366">
<g id="Frame 237">
<g id="2" clip-path="url(#clip0_26_56)">
<rect width="90" height="90" fill="#10296E"/>
<path id="Union" fill-rule="evenodd" clip-rule="evenodd" d="M67.5 45H59.4V0H58.5V45H54.9V0H54V45H50.4V0H49.5V45H45.9V0H45V45H0V45.9H45V49.5H0V50.4H45V54H0V54.9H45V58.5H0V59.4H45V67.5C45 79.9264 55.0736 90 67.5 90C79.9264 90 90 79.9264 90 67.5C90 55.0736 79.9264 45 67.5 45ZM49.5 49.5H45.9V45.9H49.5V49.5ZM50.4 49.5H54V45.9H50.4V49.5ZM54.9 49.5H58.5V45.9H54.9V49.5ZM59.4 49.5V45.9H67.5C79.4293 45.9 89.1 55.5706 89.1 67.5C89.1 79.4293 79.4293 89.1 67.5 89.1C55.5706 89.1 45.9 79.4293 45.9 67.5V59.4H49.5V67.5C49.5 77.4411 57.5589 85.5 67.5 85.5C77.4411 85.5 85.5 77.4411 85.5 67.5C85.5 57.5589 77.4411 49.5 67.5 49.5H59.4ZM49.5 58.5H45.9V54.9H49.5V58.5ZM50.4 59.4V67.5C50.4 76.9441 58.0559 84.6 67.5 84.6C76.9441 84.6 84.6 76.9441 84.6 67.5C84.6 58.0559 76.9441 50.4 67.5 50.4H59.4V54H67.5C74.9558 54 81 60.0442 81 67.5C81 74.9558 74.9558 81 67.5 81C60.0442 81 54 74.9558 54 67.5V59.4H50.4ZM54.9 54H58.5V50.4H54.9V54ZM54 50.4V54H50.4V50.4H54ZM54 54.9V58.5H50.4V54.9H54ZM54.9 67.5V59.4H58.5V67.5C58.5 72.4706 62.5294 76.5 67.5 76.5C72.4706 76.5 76.5 72.4706 76.5 67.5C76.5 62.5294 72.4706 58.5 67.5 58.5H59.4V54.9H67.5C74.4588 54.9 80.1 60.5412 80.1 67.5C80.1 74.4588 74.4588 80.1 67.5 80.1C60.5412 80.1 54.9 74.4588 54.9 67.5ZM59.4 67.5C59.4 71.9735 63.0265 75.6 67.5 75.6C71.9735 75.6 75.6 71.9735 75.6 67.5C75.6 63.0265 71.9735 59.4 67.5 59.4H59.4V67.5ZM58.5 58.5V54.9H54.9V58.5H58.5ZM49.5 54H45.9V50.4H49.5V54Z" fill="url(#paint0_linear_26_56)"/>
</g>
</g>
</g>
</g>
<defs>
<linearGradient id="paint0_linear_26_56" x1="81.9" y1="85.05" x2="3.73685e-06" y2="-1.79999" gradientUnits="userSpaceOnUse">
<stop stop-color="white"/>
<stop offset="1" stop-color="white"/>
</linearGradient>
<clipPath id="clip0_26_56">
<rect width="90" height="90" fill="white"/>
</clipPath>
</defs>
</svg>
