<svg width="90" height="90" viewBox="0 0 90 90" fill="none" xmlns="http://www.w3.org/2000/svg">
<rect width="90" height="90" fill="#1E1E1E"/>
<g id="Frame 222">
<rect width="2890" height="910" transform="translate(-2329.03 -273)" fill="#10296E"/>
<g id="Frame 366">
<g id="Frame 237">
<g id="21">
<rect width="90" height="90" fill="#10296E"/>
<path id="Union" fill-rule="evenodd" clip-rule="evenodd" d="M58.7829 19.5728L30.0202 19.8995L16.2716 43.7128L29.446 70.3576L59.0091 70.4892L73.6703 45.0954L58.7829 19.5728ZM65.2389 57.899L72.3725 45.5431L60.9703 45.4923L53.7483 58.0013L65.2389 57.899ZM64.7166 58.8036L58.4908 69.5869L47.0886 69.5362L53.2259 58.906L64.7166 58.8036ZM52.1813 58.9153L46.052 69.5315L30.5036 69.4623L36.5123 59.0548L52.1813 58.9153ZM35.7353 58.6007L29.7568 68.9557L22.8052 54.8962L28.4212 45.1691L35.7353 58.6007ZM28.9485 44.2557L36.2627 57.6872L43.6082 44.9644L36.2123 31.8115L36.1324 31.8129L28.9485 44.2557ZM27.9167 44.2428L22.3258 53.9266L17.2918 43.7457L22.6203 34.5165L27.9167 44.2428ZM23.1477 33.6031L28.4441 43.3294L35.6078 30.9216L35.7109 30.9198L30.2765 21.2555L23.1477 33.6031ZM37.0346 58.1501L52.7037 58.0106L59.9338 45.4877L44.3853 45.4185L37.0346 58.1501ZM59.7961 44.5871L44.39 44.5185L37.2351 31.7943L52.1874 31.5428L59.7961 44.5871ZM51.6674 30.6514L36.7337 30.9026L31.0461 20.7879L45.8162 20.6202L51.6674 30.6514ZM46.8512 20.6084L52.6992 30.6341L64.0813 30.4426L58.2694 20.4787L46.8512 20.6084ZM64.6013 31.334L53.2191 31.5254L60.8408 44.5917L72.3645 44.6431L64.6013 31.334Z" fill="url(#paint0_linear_26_56)"/>
</g>
</g>
</g>
</g>
<defs>
<linearGradient id="paint0_linear_26_56" x1="29.25" y1="19.7999" x2="58.5" y2="71.9999" gradientUnits="userSpaceOnUse">
<stop stop-color="white"/>
<stop offset="1" stop-color="#3C3C3C"/>
</linearGradient>
</defs>
</svg>
