<svg preserveAspectRatio="none" width="100%" height="100%" overflow="visible" style="display: block;" viewBox="0 0 45 45" fill="none" xmlns="http://www.w3.org/2000/svg">
<g id="Frame">
<path id="Vector" d="M16.875 29.0625C17.6659 29.0625 18.3323 28.7914 18.8742 28.2492C19.4164 27.7073 19.6875 27.0409 19.6875 26.25C19.6875 25.4591 19.4164 24.7927 18.8742 24.2508C18.3323 23.7086 17.6659 23.4375 16.875 23.4375C16.0841 23.4375 15.4177 23.7086 14.8758 24.2508C14.3336 24.7927 14.0625 25.4591 14.0625 26.25C14.0625 27.0409 14.3336 27.7073 14.8758 28.2492C15.4177 28.7914 16.0841 29.0625 16.875 29.0625ZM30.1242 28.2492C30.6664 27.7073 30.9375 27.0409 30.9375 26.25C30.9375 25.4591 30.6664 24.7927 30.1242 24.2508C29.5823 23.7086 28.9159 23.4375 28.125 23.4375C27.3341 23.4375 26.6677 23.7086 26.1258 24.2508C25.5836 24.7927 25.3125 25.4591 25.3125 26.25C25.3125 27.0409 25.5836 27.7073 26.1258 28.2492C26.6677 28.7914 27.3341 29.0625 28.125 29.0625C28.9159 29.0625 29.5823 28.7914 30.1242 28.2492ZM24.4992 18.8742C25.0414 18.3323 25.3125 17.6659 25.3125 16.875C25.3125 16.0841 25.0414 15.4177 24.4992 14.8758C23.9573 14.3336 23.2909 14.0625 22.5 14.0625C21.7091 14.0625 21.0427 14.3336 20.5008 14.8758C19.9586 15.4177 19.6875 16.0841 19.6875 16.875C19.6875 17.6659 19.9586 18.3323 20.5008 18.8742C21.0427 19.4164 21.7091 19.6875 22.5 19.6875C23.2909 19.6875 23.9573 19.4164 24.4992 18.8742ZM22.5061 39.375C20.1727 39.375 17.9787 38.9322 15.9244 38.0466C13.8703 37.1609 12.0834 35.9591 10.5637 34.4409C9.04406 32.9228 7.84109 31.1375 6.95484 29.085C6.06828 27.0328 5.625 24.8398 5.625 22.5061C5.625 20.1727 6.06781 17.9787 6.95344 15.9244C7.83906 13.8703 9.04094 12.0834 10.5591 10.5637C12.0772 9.04406 13.8625 7.84109 15.915 6.95484C17.9672 6.06828 20.1602 5.625 22.4939 5.625C24.8273 5.625 27.0213 6.06781 29.0756 6.95344C31.1297 7.83906 32.9166 9.04094 34.4363 10.5591C35.9559 12.0772 37.1589 13.8625 38.0452 15.915C38.9317 17.9672 39.375 20.1602 39.375 22.4939C39.375 24.8273 38.9322 27.0212 38.0466 29.0756C37.1609 31.1297 35.9591 32.9166 34.4409 34.4363C32.9228 35.9559 31.1375 37.1589 29.085 38.0452C27.0328 38.9317 24.8398 39.375 22.5061 39.375ZM22.5 37.5C26.6875 37.5 30.2344 36.0469 33.1406 33.1406C36.0469 30.2344 37.5 26.6875 37.5 22.5C37.5 18.3125 36.0469 14.7656 33.1406 11.8594C30.2344 8.95312 26.6875 7.5 22.5 7.5C18.3125 7.5 14.7656 8.95312 11.8594 11.8594C8.95312 14.7656 7.5 18.3125 7.5 22.5C7.5 26.6875 8.95312 30.2344 11.8594 33.1406C14.7656 36.0469 18.3125 37.5 22.5 37.5Z" fill="var(--fill-0, #E3E3E3)"/>
</g>
</svg>
